<?xml version="1.0" encoding="utf-8"?>
<!-- Generator: Adobe Illustrator 23.1.1, SVG Export Plug-In . SVG Version: 6.00 Build 0)  -->
<svg version="1.1" id="Layer_1" xmlns="http://www.w3.org/2000/svg" xmlns:xlink="http://www.w3.org/1999/xlink" x="0px" y="0px"
	 viewBox="0 0 153.1 147.4" style="enable-background:new 0 0 153.1 147.4;" xml:space="preserve">
<style type="text/css">
	.st0{fill:#FFFFFF;}
	.st1{fill:#7ED2AD;}
</style>
<g>
	<g>
		<g>
			<polygon class="st0" points="151.6,11.6 76.5,86.7 76.6,86.7 76.5,86.8 76.3,86.7 76.3,86.7 26.2,36.6 26.2,144.3 1.5,144.3 
				1.5,1.1 26.2,1.1 76.5,51.9 76.6,51.8 76.6,51.9 126.9,1.1 151.6,1.1 			"/>
			<polygon class="st1" points="151.6,24.7 151.6,144.3 126.9,144.3 126.9,85.1 76.7,135.3 76.5,135.2 76.5,135.2 61.5,120.2 
				61.5,120.2 61.4,120.1 35.5,94.3 35.5,59 76.5,100.3 76.6,100.4 126.9,49.7 126.9,49.6 			"/>
		</g>
	</g>
</g>
</svg>
